 <svg
  viewBox="0 0 1440 900"
  preserveAspectRatio="xMidYMid slice"
  xmlns="http://www.w3.org/2000/svg"
>
  <rect width="1440" height="900" fill="#3a9fd4"/>
  <rect width="1440" height="520" fill="#2e8fc4"/>
  <rect width="1440" height="300" fill="#1f7ab0" opacity="0.4"/>

  <circle cx="720" cy="100" r="60" fill="#f5d76e"/>
  <circle cx="720" cy="100" r="82" fill="#f5d76e" opacity="0.12"/>

  <ellipse cx="200" cy="90" rx="100" ry="24" fill="#ddeef8" opacity="0.8"/>
  <ellipse cx="240" cy="75" rx="65" ry="18" fill="#ddeef8" opacity="0.85"/>
  <ellipse cx="290" cy="82" rx="45" ry="14" fill="#ddeef8" opacity="0.65"/>

  <ellipse cx="900" cy="80" rx="100" ry="24" fill="#ddeef8" opacity="0.75"/>
  <ellipse cx="940" cy="66" rx="68" ry="18" fill="#ddeef8" opacity="0.8"/>
  <ellipse cx="990" cy="75" rx="44" ry="14" fill="#ddeef8" opacity="0.6"/>

  <ellipse cx="560" cy="130" rx="75" ry="18" fill="#ddeef8" opacity="0.5"/>
  <ellipse cx="590" cy="118" rx="50" ry="14" fill="#ddeef8" opacity="0.55"/>

  <rect y="500" width="1440" height="400" fill="#1a7abf"/>
  <rect y="590" width="1440" height="310" fill="#1568a8"/>
  <rect y="710" width="1440" height="190" fill="#0f5590"/>

  <path d="M0,510 C120,494 240,526 360,510 C480,494 600,526 720,510 C840,494 960,526 1080,510 C1200,494 1320,526 1440,510 L1440,540 L0,540 Z" fill="#1568a8" opacity="0.7"/>
  <path d="M0,535 C160,520 320,548 480,535 C640,520 800,548 960,535 C1120,520 1280,548 1440,535 L1440,558 L0,558 Z" fill="#0f5590" opacity="0.5"/>

  <g transform="translate(-30, 420) scale(1.6)">
    <polygon points="0,90 190,90 205,104 -14,104" fill="#061420"/>
    <rect x="0" y="68" width="190" height="24" rx="3" fill="#0c2e4c"/>
    <rect x="10" y="52" width="165" height="18" rx="2" fill="#0a2236"/>
    <rect x="50" y="24" width="80" height="30" rx="3" fill="#0a2236"/>
    <rect x="62" y="10" width="56" height="16" rx="2" fill="#081e30"/>
    <rect x="82" y="-14" width="14" height="26" rx="1" fill="#071825"/>
    <rect x="68" y="-4" width="42" height="5" rx="1" fill="#071825"/>
    <rect x="86" y="-24" width="4" height="12" fill="#071825"/>
    <rect x="78" y="-26" width="20" height="4" rx="1" fill="#071825"/>
    <rect x="14" y="43" width="36" height="11" rx="2" fill="#0c3352"/>
    <rect x="2" y="45" width="26" height="5" rx="1" fill="#071825"/>
    <rect x="130" y="43" width="36" height="11" rx="2" fill="#0c3352"/>
    <rect x="152" y="45" width="26" height="5" rx="1" fill="#071825"/>
    <circle cx="72" cy="34" r="4" fill="#0f4570"/>
    <circle cx="90" cy="34" r="4" fill="#0f4570"/>
    <circle cx="108" cy="34" r="4" fill="#0f4570"/>
    <ellipse cx="95" cy="98" rx="110" ry="5" fill="#2a8fc4" opacity="0.35"/>
  </g>

  <g transform="translate(1470, 420) scale(-1.6, 1.6)">
    <polygon points="0,90 190,90 205,104 -14,104" fill="#061420"/>
    <rect x="0" y="68" width="190" height="24" rx="3" fill="#0c2e4c"/>
    <rect x="10" y="52" width="165" height="18" rx="2" fill="#0a2236"/>
    <rect x="50" y="24" width="80" height="30" rx="3" fill="#0a2236"/>
    <rect x="62" y="10" width="56" height="16" rx="2" fill="#081e30"/>
    <rect x="82" y="-14" width="14" height="26" rx="1" fill="#071825"/>
    <rect x="68" y="-4" width="42" height="5" rx="1" fill="#071825"/>
    <rect x="86" y="-24" width="4" height="12" fill="#071825"/>
    <rect x="78" y="-26" width="20" height="4" rx="1" fill="#071825"/>
    <rect x="14" y="43" width="36" height="11" rx="2" fill="#0c3352"/>
    <rect x="2" y="45" width="26" height="5" rx="1" fill="#071825"/>
    <rect x="130" y="43" width="36" height="11" rx="2" fill="#0c3352"/>
    <rect x="152" y="45" width="26" height="5" rx="1" fill="#071825"/>
    <circle cx="72" cy="34" r="4" fill="#0f4570"/>
    <circle cx="90" cy="34" r="4" fill="#0f4570"/>
    <circle cx="108" cy="34" r="4" fill="#0f4570"/>
    <ellipse cx="95" cy="98" rx="110" ry="5" fill="#2a8fc4" opacity="0.35"/>
  </g>
</svg>